<?xml version="1.0" encoding="UTF-8" standalone="no"?>
<svg
   viewBox="0 0 512 512"
   version="1.1"
   id="svg9"
   sodipodi:docname="taiga-off.svg"
   inkscape:version="1.4 (1:1.4+202410161351+e7c3feb100)"
   xmlns:inkscape="http://www.inkscape.org/namespaces/inkscape"
   xmlns:sodipodi="http://sodipodi.sourceforge.net/DTD/sodipodi-0.dtd"
   xmlns="http://www.w3.org/2000/svg"
   xmlns:svg="http://www.w3.org/2000/svg">
  <defs
     id="defs9" />
  <sodipodi:namedview
     id="namedview9"
     pagecolor="#ffffff"
     bordercolor="#000000"
     borderopacity="0.25"
     inkscape:showpageshadow="2"
     inkscape:pageopacity="0.0"
     inkscape:pagecheckerboard="0"
     inkscape:deskcolor="#d1d1d1"
     inkscape:zoom="1.0742188"
     inkscape:cx="255.99999"
     inkscape:cy="255.53453"
     inkscape:window-width="1920"
     inkscape:window-height="1011"
     inkscape:window-x="0"
     inkscape:window-y="32"
     inkscape:window-maximized="1"
     inkscape:current-layer="svg9" />
  <path
     d="m393 119-17 119-120 18 17-120z"
     fill="#a295ae"
     opacity=".8"
     id="path1" />
  <path
     d="m120 393 17-119 119-17-17 120z"
     fill="#5d6f6d"
     opacity=".8"
     id="path2"
     style="fill:#666666;fill-opacity:1" />
  <path
     d="m120 119 119 17 17 120-120-17z"
     fill="#8cd592"
     opacity=".8"
     id="path3"
     style="fill:#b1b1b1;fill-opacity:1" />
  <path
     d="m393 392-119-17-17-120 120 17z"
     fill="#665e74"
     opacity=".8"
     id="path4" />
  <path
     d="m256 449-72-96 72-96 72 96z"
     fill="#3c3647"
     opacity=".8"
     id="path5" />
  <path
     d="m450 255-96 72-96-72 96-72z"
     fill="#837193"
     opacity=".8"
     id="path6" />
  <path
     d="m256 62 72 96-72 96-72-96z"
     fill="#a2f4ac"
     opacity=".8"
     id="path7"
     style="fill:#cbcbcb;fill-opacity:1" />
  <path
     d="m63 256 96-72 96 72-96 72z"
     fill="#7ea685"
     opacity=".8"
     id="path8"
     style="fill:#929292;fill-opacity:1" />
  <path
     d="m256 210 46 46-46 46-46-46z"
     fill="#3c3647"
     id="path9" />
</svg>
